<svg viewBox="0 0 860 437.4823" xmlns="http://www.w3.org/2000/svg" xmlns:xlink="http://www.w3.org/1999/xlink"><radialGradient id="a" cx="3940.25873" cy="3350.46627" gradientTransform="matrix(0 1 -1 0 3571.81458 -3721.51758)" gradientUnits="userSpaceOnUse" r="218.74115"><stop offset=".7071" stop-color="#c30000"/><stop offset="1" stop-color="#c30000" stop-opacity="0"/></radialGradient><radialGradient id="b" cx="3940.25873" cy="3069.18758" gradientTransform="matrix(0 1 -1 0 3571.81458 -3721.51758)" gradientUnits="userSpaceOnUse" r="218.74115"><stop offset=".7071" stop-color="#6e23b9"/><stop offset="1" stop-color="#6e23b9" stop-opacity="0"/></radialGradient><radialGradient id="c" cx="3940.25873" cy="3209.855" gradientTransform="matrix(0 1 -1 0 3571.81458 -3721.51758)" gradientUnits="userSpaceOnUse" r="218.74115"><stop offset=".7071" stop-color="#95098a"/><stop offset="1" stop-color="#95098a" stop-opacity="0"/></radialGradient><radialGradient id="d" cx="3940.25873" cy="2928.57631" gradientTransform="matrix(0 1 -1 0 3571.81458 -3721.51758)" gradientUnits="userSpaceOnUse" r="218.74115"><stop offset=".7071" stop-color="#005ac8"/><stop offset="1" stop-color="#005ac8" stop-opacity="0"/></radialGradient><path d="m437.80187 218.74115c0-120.58807-98.22478-218.74115-218.90094-218.74115s-218.90093 98.15308-218.90093 218.74115 98.22478 218.74115 218.90093 218.74115c120.73227 0 218.90093-98.15308 218.90093-218.74115zm-373.64707 0c0-85.42123 69.31864-154.68925 154.80225-154.68925s154.74613 69.26802 154.74613 154.68925-69.31863 154.68925-154.80224 154.68925-154.74614-69.26803-154.74614-154.68925z" fill="url(#a)"/><path d="m719.28602 218.74115c0-120.58807-98.22478-218.74115-218.90094-218.74115s-218.90093 98.15308-218.90093 218.74115 98.22478 218.74115 218.90093 218.74115 218.90093-98.15308 218.90093-218.74115zm-373.70321 0c0-85.42123 69.31863-154.68925 154.80221-154.68925s154.74616 69.26802 154.74616 154.68925-69.31863 154.68925-154.80221 154.68925-154.74616-69.26803-154.74616-154.68925z" fill="url(#b)"/><path d="m578.51585 218.74115c0-120.58807-98.22478-218.74115-218.90093-218.74115s-218.90093 98.15308-218.90093 218.74115 98.22478 218.74115 218.90093 218.74115c120.7323 0 218.90093-98.15308 218.90093-218.74115zm-373.64705 0c0-85.42123 69.31865-154.68925 154.80223-154.68925s154.74616 69.26802 154.74616 154.68925-69.31863 154.68925-154.80228 154.68925-154.74611-69.26803-154.74611-154.68925z" fill="url(#c)"/><path d="m860 218.74115c0-120.58807-98.22478-218.74115-218.90093-218.74115s-218.90093 98.15308-218.90093 218.74115 98.22478 218.74115 218.90093 218.74115 218.90093-98.15308 218.90093-218.74115zm-373.70318 0c0-85.42123 69.31866-154.68925 154.80224-154.68925s154.74616 69.26802 154.74616 154.68925-69.31863 154.68925-154.80228 154.68925-154.74613-69.26803-154.74613-154.68925z" fill="url(#d)"/></svg>