<svg viewBox="0 0 332 132.82458" xmlns="http://www.w3.org/2000/svg"><path d="m147.33821 33.35863h-27.9865c.56291 11.38795 5.85428 16.11885 13.07179 16.11885 4.57182 0 7.61889-1.44399 11.30718-4.17044l2.16599 2.96875c-3.93059 3.20615-8.17935 5.13229-13.71302 5.13229-11.06733 0-17.80269-8.02027-17.80269-21.49343 0-13.38995 6.49551-22.21298 16.76008-22.21298 10.9058 0 16.3587 7.9395 16.3587 20.28929 0 1.28246-.08077 2.56737-.16153 3.36768zm-4.41029-4.81167c0-9.14119-3.68829-14.99548-11.6278-14.99548-6.57383 0-11.46626 4.81167-11.94841 16.19962h23.57621zm45.28012 23.97759h-5.61443l-12.10749-19.48653-12.02918 19.48653h-5.37458l14.75563-22.29375-12.82949-19.64562h5.4529l10.26457 16.76008 10.34534-16.76008h5.29137l-12.91026 19.48653 14.75563 22.45283zm41.78273-21.17037c0 13.23087-5.53367 22.0539-15.95977 22.0539-5.29137 0-9.30028-2.40584-11.94841-5.77352v51.03895h-4.65014v-88.08832h4.00891l.40138 6.09413c3.04706-4.25121 7.53812-6.97766 12.91026-6.97766 10.34534 0 15.23777 8.10103 15.23777 21.65252zm-4.9732 0c0-11.94841-3.84738-17.80269-11.14565-17.80269-5.37213 0-8.90135 3.2086-11.78933 7.21751v22.29375c2.56737 3.92814 6.25566 6.41474 11.06733 6.41474 7.6972 0 11.86765-6.09413 11.86765-18.12331zm46.68985 2.00445h-27.9865c.56046 11.38795 5.85428 16.11885 13.07179 16.11885 4.56937 0 7.61644-1.44399 11.30473-4.17044l2.16599 2.96875c-3.92814 3.20615-8.17935 5.13229-13.71302 5.13229-11.06488 0-17.80269-8.02027-17.80269-21.49343 0-13.38995 6.49551-22.21298 16.76008-22.21298 10.9058 0 16.3587 7.9395 16.3587 20.28929 0 1.28246-.07832 2.56737-.15908 3.36768zm-4.41029-4.81167c0-9.14119-3.68829-14.99548-11.6278-14.99548-6.57628 0-11.46871 4.81167-11.94841 16.19962h23.57621zm36.19789-18.36316-.88353 4.41029c-1.20169-.32061-2.2443-.4797-3.68829-.4797-5.85428 0-8.98211 4.16799-11.22642 12.74872v25.66143h-4.65259v-41.93935h4.01136l.40138 9.38104c2.2443-6.89444 6.01336-10.26457 11.86765-10.26457 1.60307 0 3.04706.16153 4.17044.48215zm28.50499 40.57614c-2.56737 1.68384-5.4529 2.64813-8.82303 2.64813-6.33398 0-10.26457-3.76906-10.26457-11.06733v-27.98649h-7.05597v-3.76906h7.05597v-10.02473l4.65259-.56046v10.58519h10.82503l-.56046 3.76906h-10.26457v27.74665c0 4.88999 1.92369 7.29582 6.1749 7.29582 2.32507 0 4.32952-.64123 6.41474-1.84292l1.84537 3.20615zm-209.58654 47.91357h-4.65503v-37.22804h4.65503zm35.66412 0h-6.27524l-15.693-32.08841c.26922 2.97609.64857 7.25177.64857 14.12419v17.96422h-4.38337v-37.22804h6.11616l15.80068 32.14225c-.11013-1.02793-.59718-6.71089-.59718-11.30963v-20.83262h4.38337v37.22804zm30.83287-33.60338-2.54289 2.8684c-2.81456-2.27367-5.41129-3.24776-8.54891-3.24776-3.95017 0-6.92626 1.89432-6.92626 5.51898 0 3.3016 1.56881 4.87041 8.2797 6.92626 6.11371 1.84048 10.93027 4.22184 10.93027 11.20194 0 6.49306-4.87041 10.98412-13.04242 10.98412-5.30116 0-9.41531-1.78419-12.49909-4.76027l2.59674-2.92225c2.81456 2.32507 5.7368 3.78619 9.84851 3.78619 4.5449 0 8.22585-2.32507 8.22585-6.92626 0-3.84004-1.84048-5.51898-8.22585-7.46714-7.30561-2.21738-10.93027-4.9781-10.93027-10.65861 0-5.57282 4.76272-9.57929 11.525-9.57929 5.08823 0 8.2797 1.51497 11.30963 4.27568zm48.17544-.26922-2.76071 2.9198c-2.59674-2.10969-4.87041-3.02993-8.2234-3.02993-5.46514 0-10.98657 4.16799-10.98657 15.31364 0 10.87643 3.84248 15.42133 10.55337 15.42133 2.59674 0 5.08578-.54088 7.24932-1.73034v-11.68898h-6.76228l-.54088-3.84004h11.9582v17.91038c-3.46313 2.00201-7.30561 3.24531-11.90436 3.24531-9.52544 0-15.53147-6.43922-15.53147-19.31766 0-12.60677 7.52344-19.20997 15.96466-19.20997 4.81412 0 7.84405 1.40728 10.98412 4.00646zm30.88949 16.23143h-16.17759v17.64116h-4.65503v-37.22804h4.65503v15.69055h16.17759v-15.69055h4.70888v37.22804h-4.70888zm36.64555-15.58286h-10.44323v33.22402h-4.65503v-33.22402h-10.71245v-4.00401h26.35161l-.54088 4.00401zm26.18716-.37935-2.54289 2.8684c-2.81456-2.27367-5.41129-3.24776-8.54891-3.24776-3.95017 0-6.92626 1.89432-6.92626 5.51898 0 3.3016 1.56881 4.87041 8.2797 6.92626 6.11371 1.84048 10.93027 4.22184 10.93027 11.20194 0 6.49306-4.87041 10.98412-13.04242 10.98412-5.30116 0-9.41531-1.78419-12.49909-4.76027l2.59674-2.92225c2.81456 2.32507 5.7368 3.78619 9.84851 3.78619 4.5449 0 8.22585-2.32507 8.22585-6.92626 0-3.84004-1.84048-5.51898-8.22585-7.46714-7.30561-2.21738-10.93027-4.9781-10.93027-10.65861 0-5.57282 4.76272-9.57929 11.525-9.57929 5.08823 0 8.2797 1.51497 11.30963 4.27568zm-278.76692 40.52674c-28.69548 0-52.04118-23.3457-52.04118-52.04118s23.3457-52.04159 52.04118-52.04159 52.04199 23.3457 52.04199 52.04159-23.3457 52.04118-52.04199 52.04118zm0-100.77169c-26.87018 0-48.7301 21.86032-48.7301 48.73051s21.85992 48.7301 48.7301 48.7301 48.73091-21.86032 48.73091-48.7301-21.86072-48.73051-48.73091-48.73051zm7.35697 71.69829h-14.54175c-2.50999 0-4.55273-2.04234-4.55273-4.55273v-2.22948c0-4.75281-1.95544-9.33707-5.50661-12.90804-4.5689-4.59477-7.08535-10.68462-7.08535-17.14753 0-6.90711 2.96267-13.51795 8.12815-18.13697 5.15739-4.61094 12.08269-6.81172 18.99182-6.03609 11.30908 1.26712 20.31836 10.41503 21.42178 21.75079.71541 7.35778-1.88188 14.54701-7.12577 19.72501-3.29006 3.24924-5.1768 7.85411-5.1768 12.63319v2.34912c0 2.51039-2.04275 4.55273-4.55273 4.55273zm-7.38849-58.68598c-5.37404 0-10.45221 1.93039-14.51427 5.56239-4.63923 4.14855-7.30038 10.0844-7.30038 16.28581 0 5.80247 2.25939 11.27028 6.36267 15.3966 4.01679 4.03942 6.22929 9.24532 6.22929 14.65896v2.22948c0 1.14101.92801 2.06942 2.06942 2.06942h14.54175c1.14142 0 2.06942-.92841 2.06942-2.06942v-2.34912c0-5.43871 2.15592-10.68745 5.91564-14.40029 4.70956-4.65014 7.0417-11.1078 6.39824-17.71743-.99025-10.17494-9.07637-18.38595-19.22625-19.52333-.85364-.09579-1.70404-.14308-2.54555-.14308zm9.56301 62.79694h-19.06215v-2.06942h19.06215zm0 1.12121h-19.06215v2.06942h19.06215zm0 3.19063h-19.06215v2.06942h19.06215zm-15.47062 3.82393c1.41674 1.70654 3.55325 2.79517 5.93934 2.79517s4.52271-1.08863 5.93945-2.79517zm1.93529-17.92471c-.31769 0-.63538-.12126-.87789-.36377-.48502-.48462-.48502-1.27116 0-1.75578l9.62283-9.62283c.48502-.48502 1.27076-.48502 1.75578 0 .48502.48462.48502 1.27116 0 1.75578l-9.62283 9.62283c-.24251.24251-.5602.36377-.87789.36377zm.87789-6.81293 9.62283-9.62283c.48502-.48462.48502-1.27116 0-1.75578-.48502-.48502-1.27076-.48502-1.75578 0l-9.62283 9.62283c-.48502.48462-.48502 1.27116 0 1.75578.24251.24251.5602.36377.87789.36377s.63538-.12126.87789-.36377zm0-6.44917 9.62283-9.62283c.48502-.48462.48502-1.27116 0-1.75578-.48502-.48502-1.27076-.48502-1.75578 0l-9.62283 9.62283c-.48502.48462-.48502 1.27116 0 1.75578.24251.24251.5602.36377.87789.36377s.63538-.12126.87789-.36377zm0-6.44917 9.62283-9.62283c.48502-.48462.48502-1.27116 0-1.75578-.48502-.48502-1.27076-.48502-1.75578 0l-9.62283 9.62283c-.48502.48462-.48502 1.27116 0 1.75578.24251.24251.5602.36377.87789.36377s.63538-.12126.87789-.36377zm-34.32631 71.9707h-2.18525v5.67461h-1.6483v-13.18874h3.39259c3.25914 0 4.94646 1.2651 4.94646 3.70009 0 1.87853-.99741 2.97115-2.87594 3.52683l3.56585 5.96182h-1.97453l-3.2209-5.67461zm-.24896-1.28383c1.89804 0 2.99066-.70942 2.99066-2.5302 0-1.66781-.95839-2.39675-3.20138-2.39675h-1.72556v4.92695zm15.17029 6.05781-.38398 1.13086c-.97712-.13424-1.61006-.53695-1.87853-1.55309-.70942 1.07389-1.78254 1.55309-3.02891 1.55309-1.99326 0-3.18187-1.24637-3.18187-3.04842 0-2.147 1.61006-3.2966 4.37049-3.2966h1.64908v-.80542c0-1.49533-.70942-2.07052-2.16651-2.07052-.7664 0-1.68654.19199-2.72219.55646l-.40271-1.18862c1.20813-.46046 2.30075-.69069 3.4121-.69069 2.39675 0 3.48937 1.22686 3.48937 3.31689v4.67721c0 .93888.30671 1.22686.84366 1.41885zm-2.45372-1.74507v-2.39597h-1.43836c-1.87853 0-2.87516.70942-2.87516 2.147 0 1.22686.63294 1.89804 1.84029 1.89804 1.09262 0 1.89804-.55646 2.47323-1.64908zm11.98607-6.59398-.78591 1.01614c-.6704-.4987-1.32285-.74767-2.18525-.74767-1.6483 0-2.70268 1.28383-2.70268 3.98729 0 2.68395 1.05438 3.83354 2.70268 3.83354.86239 0 1.47582-.26847 2.22349-.78591l.74767 1.05438c-.86239.72816-1.87853 1.11213-3.02891 1.11213-2.68317 0-4.37049-1.93628-4.37049-5.19542 0-3.22012 1.66781-5.34839 4.37049-5.34839 1.16989 0 2.10876.30671 3.02891 1.07389zm4.08797 9.23969h-1.61006v-14.14712l1.61006-.19199zm1.91755-5.61686 4.2745 5.61686h-1.93628l-4.14026-5.50136 3.83354-4.58199h1.80205l-3.83354 4.46649zm12.11953-3.54634-.68991 1.01614c-.90063-.5947-1.66781-.8819-2.6262-.8819-1.18862 0-1.95501.55568-1.95501 1.41885 0 .86239.57441 1.24559 2.24222 1.68654 2.12827.55646 3.31689 1.3611 3.31689 3.1249 0 2.05101-1.8598 3.02891-3.8913 3.02891-1.70683 0-2.89467-.55646-3.77657-1.32285l.86239-.9779c.82415.61343 1.74429.99741 2.87516.99741 1.34237 0 2.243-.61343 2.243-1.62957 0-1.05438-.51743-1.43758-2.51069-1.97453-2.16651-.57519-3.02891-1.4766-3.02891-2.89467 0-1.59133 1.51406-2.7417 3.56507-2.7417 1.38061 0 2.41548.42222 3.37386 1.15038zm11.1229 4.10202c0 3.08666-1.34158 5.29142-3.92954 5.29142-1.13086 0-2.05101-.40271-2.68395-1.18862v4.81144l-1.61006.19199v-14.12839h1.38061l.13424 1.39934c.72816-1.03487 1.80127-1.62957 2.98988-1.62957 2.64571 0 3.71882 2.05179 3.71882 5.25239zm-1.72478 0c0-2.68317-.80542-3.96778-2.37723-3.96778-1.11213 0-1.95501.76718-2.51147 1.61006v5.04167c.53695.80542 1.34237 1.28461 2.31948 1.28461 1.66781 0 2.56922-1.2651 2.56922-3.96856zm12.16011 4.16055-.38398 1.13086c-.97712-.13424-1.61006-.53695-1.87853-1.55309-.70942 1.07389-1.78254 1.55309-3.02891 1.55309-1.99326 0-3.18187-1.24637-3.18187-3.04842 0-2.147 1.61006-3.2966 4.37049-3.2966h1.64908v-.80542c0-1.49533-.70942-2.07052-2.16651-2.07052-.7664 0-1.68654.19199-2.72219.55646l-.40271-1.18862c1.20813-.46046 2.30075-.69069 3.41289-.69069 2.39597 0 3.48859 1.22686 3.48859 3.31689v4.67721c0 .93888.30671 1.22686.84366 1.41885zm-2.45372-1.74507v-2.39597h-1.43836c-1.87853 0-2.87516.70942-2.87516 2.147 0 1.22686.63294 1.89804 1.84029 1.89804 1.09262 0 1.89804-.55646 2.47323-1.64908zm11.98607-6.59398-.78591 1.01614c-.6704-.4987-1.32285-.74767-2.18525-.74767-1.6483 0-2.70268 1.28383-2.70268 3.98729 0 2.68395 1.05438 3.83354 2.70268 3.83354.86239 0 1.47582-.26847 2.22349-.78591l.74767 1.05438c-.86239.72816-1.87853 1.11213-3.02891 1.11213-2.68317 0-4.37049-1.93628-4.37049-5.19542 0-3.22012 1.66781-5.34839 4.37049-5.34839 1.16989 0 2.10876.30671 3.02891 1.07389zm9.57059 4.75369h-6.49876c.17248 2.43499 1.28461 3.39337 2.81819 3.39337 1.01614 0 1.76381-.28798 2.64571-.90141l.70864.95917c-.97712.78591-2.08925 1.2651-3.46908 1.2651-2.77994 0-4.40951-1.97453-4.40951-5.17591 0-3.16314 1.57182-5.3679 4.14104-5.3679 2.70268 0 4.10202 1.89804 4.10202 4.94646 0 .34496-.01951.6704-.03824.88112zm-1.55309-1.34158c0-2.03228-.80464-3.20138-2.47245-3.20138-1.39934 0-2.33899.99663-2.47323 3.35435h4.94568zm17.20413-5.94231h-3.70009v11.76989h-1.6483v-11.76989h-3.79608v-1.41885h9.33568zm8.66918 7.28389h-6.49876c.17248 2.43499 1.28461 3.39337 2.81819 3.39337 1.01614 0 1.76381-.28798 2.64571-.90141l.70864.95917c-.97712.78591-2.08925 1.2651-3.46908 1.2651-2.77994 0-4.40951-1.97453-4.40951-5.17591 0-3.16314 1.57182-5.3679 4.14104-5.3679 2.70268 0 4.10202 1.89804 4.10202 4.94646 0 .34496-.01951.6704-.03824.88112zm-1.55309-1.34158c0-2.03228-.80464-3.20138-2.47245-3.20138-1.39934 0-2.33899.99663-2.47323 3.35435h4.94568zm11.1627-3.4121-.78591 1.01614c-.6704-.4987-1.32285-.74767-2.18525-.74767-1.6483 0-2.70268 1.28383-2.70268 3.98729 0 2.68395 1.05438 3.83354 2.70268 3.83354.86239 0 1.47582-.26847 2.22349-.78591l.74767 1.05438c-.86239.72816-1.87853 1.11213-3.02891 1.11213-2.68317 0-4.37049-1.93628-4.37049-5.19542 0-3.22012 1.66781-5.34839 4.37049-5.34839 1.16989 0 2.10876.30671 3.02891 1.07389zm10.04979 2.01277v7.22692h-1.61006v-6.99669c0-1.55309-.65167-2.05101-1.68654-2.05101-1.15038 0-1.97453.74689-2.66522 1.84029v7.20741h-1.61006v-14.12839l1.61006-.19121v5.67383c.74767-1.01536 1.76381-1.66781 3.06715-1.66781 1.82156 0 2.89467 1.18862 2.89467 3.08666zm11.22045 0v7.22692h-1.61006v-6.99669c0-1.55309-.63216-2.05101-1.66781-2.05101-1.18862 0-1.99326.74689-2.68395 1.85902v7.18868h-1.61006v-10.08335h1.38061l.13424 1.51484c.74767-1.03565 1.80127-1.74507 3.16236-1.74507 1.84029 0 2.89467 1.16989 2.89467 3.08666zm11.77691 2.16573c0 3.16314-1.62957 5.29142-4.44775 5.29142s-4.42824-2.05101-4.42824-5.25239c0-3.16314 1.62957-5.29142 4.44775-5.29142 2.83692 0 4.42824 2.03228 4.42824 5.25239zm-7.15044.03902c0 2.66444.95839 3.94905 2.70268 3.94905s2.72219-1.28461 2.72219-3.98807c0-2.66444-.95839-3.94827-2.70268-3.94827-1.72556 0-2.72219 1.28383-2.72219 3.98729zm10.0693 3.10539v-12.23035l1.61084-.19199v12.3841c0 .55568.19121.84288.6704.84288.24974 0 .46046-.03824.65167-.11473l.42222 1.13086c-.36447.19199-.84366.32623-1.34237.32623-1.22686 0-2.01277-.74767-2.01277-2.147zm13.71007-3.14441c0 3.16314-1.62957 5.29142-4.44775 5.29142s-4.42824-2.05101-4.42824-5.25239c0-3.16314 1.62957-5.29142 4.44775-5.29142 2.83692 0 4.42824 2.03228 4.42824 5.25239zm-7.15044.03902c0 2.66444.95839 3.94905 2.70268 3.94905s2.72219-1.28461 2.72219-3.98807c0-2.66444-.95839-3.94827-2.70268-3.94827-1.72556 0-2.72219 1.28383-2.72219 3.98729zm18.13988-4.65848c-.80464.24896-1.74429.2872-2.9134.30671 1.16911.51743 1.76302 1.3611 1.76302 2.58795 0 1.97453-1.41807 3.39259-3.7953 3.39259-.46046 0-.8819-.05697-1.28461-.19121-.34496.23023-.55568.59392-.55568.99663 0 .47919.30671.86239 1.37983.86239h1.61084c2.05101 0 3.39259 1.16989 3.39259 2.7417 0 1.93628-1.5523 3.02891-4.63896 3.02891-3.23963 0-4.29401-.9779-4.29401-3.01018h1.45709c0 1.20813.57519 1.74507 2.83692 1.74507 2.22349 0 3.01018-.5947 3.01018-1.64908 0-.99663-.78669-1.49533-2.09003-1.49533h-1.59055c-1.76381 0-2.56922-.8819-2.56922-1.87853 0-.6704.3832-1.30334 1.09262-1.76381-1.15038-.61343-1.68654-1.49455-1.68654-2.81741 0-2.05101 1.61006-3.48937 3.83354-3.48937 2.54971.05775 3.43162-.32545 4.56248-.84288l.47919 1.47582zm-7.22692 2.85643c0 1.41807.80542 2.35772 2.22349 2.35772 1.43758 0 2.20476-.86239 2.20476-2.35772s-.74767-2.31948-2.243-2.31948c-1.43758 0-2.18525.97712-2.18525 2.31948zm12.98348 6.88196c-.70942 2.147-1.84029 3.64234-4.54375 3.98729l-.19121-1.2651c2.05101-.38398 2.60669-1.16989 3.20138-2.77994h-.55646l-3.4121-10.08335h1.72556l2.77916 8.91424 2.72219-8.91424h1.66781l-3.39259 10.1411zm18.18046-11.82764h-3.70009v11.76989h-1.6483v-11.76989h-3.79608v-1.41885h9.33568zm8.66918 7.28389h-6.49876c.17248 2.43499 1.28461 3.39337 2.81819 3.39337 1.01614 0 1.76381-.28798 2.64571-.90141l.70864.95917c-.97712.78591-2.08925 1.2651-3.46908 1.2651-2.77994 0-4.40951-1.97453-4.40951-5.17591 0-3.16314 1.57182-5.3679 4.14104-5.3679 2.70268 0 4.10202 1.89804 4.10202 4.94646 0 .34496-.01951.6704-.03824.88112zm-1.55309-1.34158c0-2.03228-.80464-3.20138-2.47245-3.20138-1.39934 0-2.33899.99663-2.47323 3.35435h4.94568zm11.1627-3.4121-.78591 1.01614c-.6704-.4987-1.32285-.74767-2.18525-.74767-1.6483 0-2.70268 1.28383-2.70268 3.98729 0 2.68395 1.05438 3.83354 2.70268 3.83354.86239 0 1.47582-.26847 2.22349-.78591l.74767 1.05438c-.86239.72816-1.87853 1.11213-3.02891 1.11213-2.68317 0-4.37049-1.93628-4.37049-5.19542 0-3.22012 1.66781-5.34839 4.37049-5.34839 1.16989 0 2.10876.30671 3.02891 1.07389zm10.04979 2.01277v7.22692h-1.61006v-6.99669c0-1.55309-.65167-2.05101-1.68654-2.05101-1.15038 0-1.97453.74689-2.66522 1.84029v7.20741h-1.61006v-14.12839l1.61006-.19121v5.67383c.74767-1.01536 1.76381-1.66781 3.06715-1.66781 1.82156 0 2.89467 1.18862 2.89467 3.08666zm11.22045 0v7.22692h-1.61006v-6.99669c0-1.55309-.63216-2.05101-1.66781-2.05101-1.18862 0-1.99326.74689-2.68395 1.85902v7.18868h-1.61006v-10.08335h1.38061l.13424 1.51484c.74767-1.03565 1.80127-1.74507 3.16236-1.74507 1.84029 0 2.89467 1.16989 2.89467 3.08666zm5.58486-6.49876c0 .63294-.46046 1.11213-1.15038 1.11213-.6704 0-1.13086-.47919-1.13086-1.11213 0-.63216.46046-1.11135 1.13086-1.11135.68991 0 1.15038.47919 1.15038 1.11135zm-.32623 13.72568h-1.61006v-10.08335h1.61006zm10.3924-9.23969-.78591 1.01614c-.6704-.4987-1.32285-.74767-2.18525-.74767-1.6483 0-2.70268 1.28383-2.70268 3.98729 0 2.68395 1.05438 3.83354 2.70268 3.83354.86239 0 1.47582-.26847 2.22349-.78591l.74767 1.05438c-.86239.72816-1.87853 1.11213-3.02891 1.11213-2.68317 0-4.37049-1.93628-4.37049-5.19542 0-3.22012 1.66781-5.34839 4.37049-5.34839 1.16989 0 2.10876.30671 3.02891 1.07389zm9.80161 8.33905-.38398 1.13086c-.97712-.13424-1.61006-.53695-1.87853-1.55309-.70942 1.07389-1.78254 1.55309-3.02891 1.55309-1.99326 0-3.18187-1.24637-3.18187-3.04842 0-2.147 1.61006-3.2966 4.37049-3.2966h1.64908v-.80542c0-1.49533-.70942-2.07052-2.16651-2.07052-.7664 0-1.68654.19199-2.72219.55646l-.40271-1.18862c1.20813-.46046 2.30075-.69069 3.4121-.69069 2.39675 0 3.48937 1.22686 3.48937 3.31689v4.67721c0 .93888.30671 1.22686.84366 1.41885zm-2.45372-1.74507v-2.39597h-1.43836c-1.87853 0-2.87516.70942-2.87516 2.147 0 1.22686.63294 1.89804 1.84029 1.89804 1.09262 0 1.89804-.55646 2.47323-1.64908zm5.04636.72894v-12.23035l1.61084-.19199v12.3841c0 .55568.19121.84288.6704.84288.24974 0 .46046-.03824.65167-.11473l.42222 1.13086c-.36447.19199-.84366.32623-1.34237.32623-1.22686 0-2.01277-.74767-2.01277-2.147zm19.65472-1.82156c0 2.7417-2.08925 3.73833-5.11816 3.73833h-3.62282v-13.18874h3.06715c3.20138 0 5.07992 1.03487 5.07992 3.31611 0 1.64908-1.15038 2.6262-2.45372 2.89467 1.55309.24974 3.04764.99741 3.04764 3.23963zm-7.09268-8.12755v4.31274h2.147c1.51484 0 2.64571-.7664 2.64571-2.20398 0-1.64908-1.18862-2.10876-3.20138-2.10876zm5.32966 8.12755c0-1.87853-1.38061-2.5302-3.01018-2.5302h-2.31948v4.92695h1.97453c1.97453 0 3.35513-.46046 3.35513-2.39675zm4.45244 1.82156v-12.23035l1.61084-.19199v12.3841c0 .55568.19121.84288.6704.84288.24974 0 .46046-.03824.65167-.11473l.42222 1.13086c-.36447.19199-.84366.32623-1.34237.32623-1.22686 0-2.01277-.74767-2.01277-2.147zm13.71007-3.14441c0 3.16314-1.62957 5.29142-4.44775 5.29142s-4.42824-2.05101-4.42824-5.25239c0-3.16314 1.62957-5.29142 4.44775-5.29142 2.83692 0 4.42824 2.03228 4.42824 5.25239zm-7.15044.03902c0 2.66444.95839 3.94905 2.70268 3.94905s2.72219-1.28461 2.72219-3.98807c0-2.66444-.95839-3.94827-2.70268-3.94827-1.72556 0-2.72219 1.28383-2.72219 3.98729zm18.14066-4.65848c-.80464.24896-1.74429.2872-2.9134.30671 1.16911.51743 1.76302 1.3611 1.76302 2.58795 0 1.97453-1.41807 3.39259-3.7953 3.39259-.46046 0-.8819-.05697-1.28461-.19121-.34496.23023-.55568.59392-.55568.99663 0 .47919.30671.86239 1.37983.86239h1.61084c2.05101 0 3.39259 1.16989 3.39259 2.7417 0 1.93628-1.5523 3.02891-4.63896 3.02891-3.23963 0-4.29401-.9779-4.29401-3.01018h1.45709c0 1.20813.57519 1.74507 2.83692 1.74507 2.22349 0 3.01018-.5947 3.01018-1.64908 0-.99663-.78669-1.49533-2.09003-1.49533h-1.59055c-1.76381 0-2.56922-.8819-2.56922-1.87853 0-.6704.3832-1.30334 1.09262-1.76381-1.15038-.61343-1.68654-1.49455-1.68654-2.81741 0-2.05101 1.61006-3.48937 3.83354-3.48937 2.54971.05775 3.43162-.32545 4.56248-.84288l.47919 1.47582zm-7.22692 2.85643c0 1.41807.80542 2.35772 2.22349 2.35772 1.43758 0 2.20476-.86239 2.20476-2.35772s-.74767-2.31948-2.243-2.31948c-1.43758 0-2.18525.97712-2.18525 2.31948z" fill="#fff"/></svg>